<?xml version="1.0" encoding="utf-8"?>
<!-- Generator: Adobe Illustrator 25.2.0, SVG Export Plug-In . SVG Version: 6.00 Build 0)  -->
<svg version="1.1" id="Layer_1" xmlns="http://www.w3.org/2000/svg" xmlns:xlink="http://www.w3.org/1999/xlink" x="0px" y="0px"
	 viewBox="0 0 454 273" style="enable-background:new 0 0 454 273;" xml:space="preserve">
<style type="text/css">
	.st0{fill:#44C0F0;}
</style>
<path class="st0" d="M62.8,127.8H13.2c-2.7,0-4.8-2.2-4.8-4.8c0-0.9,0.2-1.8,0.7-2.5c7.3-11.9,25.1-36.7,59.1-61.5h0.1
	c1.2-1,36.9-32.2,100-45.1c0,0,87.5-20.6,172,18.6c0,0,70.7,35.3,100.2,88.2c1.3,2.3,0.4,5.3-1.9,6.5c-0.7,0.4-1.5,0.6-2.3,0.6H415
	c-6.9,0-13.2-3.7-16.7-9.6c-6.2-10.9-20-29.9-48.1-50.1c0,0-50.8-37.5-130.6-29.6c0,0-45.4,3.3-83,26.8h-0.1
	c-1,0.5-23.9,11.8-57.1,54.2C75.5,124.8,69.3,127.8,62.8,127.8"/>
<path class="st0" d="M386.3,147.3h49.6c2.7,0,4.8,2.2,4.8,4.8c0,0.9-0.2,1.7-0.7,2.5c-7.3,11.9-25.1,36.7-59.1,61.5l-0.1,0.1
	c-1.4,1.3-37.2,32.3-99.9,45.1c0,0-87.4,20.6-172-18.6c0,0-70.7-35.3-100.2-88.2c-1.3-2.3-0.4-5.3,1.9-6.5c0.7-0.4,1.5-0.6,2.3-0.6
	H34c6.9,0,13.3,3.7,16.7,9.7c6.2,10.9,20,29.9,48.1,50.1c0,0,50.8,37.5,130.5,29.6c0,0,45.4-3.3,83-26.8l0.1-0.1
	c1.4-0.7,24.1-12.1,57-54.2C373.6,150.4,379.8,147.4,386.3,147.3"/>
<path class="st0" d="M274.8,158.6c-5.5,0-10.7,2.7-13.9,7.3c-5.4,7.9-13.3,13.8-22.4,16.8c0,0-27.3,9.9-47.4-13.1l103.4-46.4
	c4.1-1.9,6-6.7,4.5-10.9c-15.5-40.5-60.9-60.8-101.4-45.3s-60.8,60.9-45.3,101.4s60.9,60.8,101.4,45.3c22.4-8.5,39.6-26.8,46.9-49.7
	c0.7-2.3-0.6-4.7-2.8-5.4c-0.4-0.1-0.9-0.2-1.3-0.2L274.8,158.6z M180.6,140.8c0-24.3,19.7-44.1,44-44.1c13.2,0,25.6,5.8,34,16
	l-77.4,35C180.8,145.4,180.6,143.1,180.6,140.8"/>
</svg>
