<?xml version="1.0" encoding="UTF-8" standalone="no"?>
<!DOCTYPE svg PUBLIC "-//W3C//DTD SVG 20010904//EN"
              "http://www.w3.org/TR/2001/REC-SVG-20010904/DTD/svg10.dtd">

<svg xmlns="http://www.w3.org/2000/svg"
     width="6.4in" height="3.6in"
     viewBox="0 0 1920 1080">
  <path id="Selection"
        fill="#303030" stroke="black" stroke-width="1"
        d="M 271.00,620.00
           C 282.26,620.00 294.16,620.18 305.00,616.64
             315.85,613.10 323.27,608.34 332.00,601.08
             357.36,579.99 368.82,553.93 377.71,523.00
             377.71,523.00 434.58,328.00 434.58,328.00
             434.58,328.00 470.02,206.00 470.02,206.00
             470.02,206.00 497.71,111.00 497.71,111.00
             497.71,111.00 505.86,83.00 505.86,83.00
             506.63,80.27 509.20,72.37 508.98,70.00
             508.54,65.39 500.33,58.30 497.00,55.00
             482.20,40.38 469.78,31.18 449.00,27.75
             436.61,25.71 437.82,26.21 426.00,26.00
             423.91,25.96 420.60,26.16 419.78,23.69
             418.99,21.29 422.65,9.53 424.70,7.99
             426.37,6.74 429.96,7.00 432.00,7.00
             432.00,7.00 630.00,7.00 630.00,7.00
             632.67,7.01 636.22,6.65 638.30,8.60
             639.55,9.77 643.69,18.82 644.74,21.00
             644.74,21.00 659.24,52.00 659.24,52.00
             659.24,52.00 693.31,125.00 693.31,125.00
             693.31,125.00 729.58,202.00 729.58,202.00
             729.58,202.00 743.69,232.00 743.69,232.00
             743.69,232.00 788.69,328.00 788.69,328.00
             788.69,328.00 818.22,391.00 818.22,391.00
             818.22,391.00 835.00,426.00 835.00,426.00
             835.65,418.82 841.30,401.80 843.58,394.00
             843.58,394.00 861.29,333.00 861.29,333.00
             861.29,333.00 918.86,135.00 918.86,135.00
             927.61,104.25 941.99,59.06 909.00,37.10
             904.31,33.98 897.44,30.97 892.00,29.43
             884.91,27.42 872.36,25.34 865.00,25.00
             865.33,21.35 867.56,10.09 870.51,8.02
             872.64,6.53 880.16,7.00 883.00,7.00
             883.00,7.00 915.00,7.00 915.00,7.00
             915.00,7.00 1071.00,7.00 1071.00,7.00
             1070.07,10.18 1067.29,22.38 1065.28,24.02
             1063.42,25.53 1050.45,26.75 1047.00,27.45
             1035.46,29.77 1024.22,33.54 1014.00,39.43
             990.15,53.16 978.42,75.19 968.81,100.00
             968.81,100.00 952.58,152.00 952.58,152.00
             952.58,152.00 939.58,196.00 939.58,196.00
             939.58,196.00 896.58,342.00 896.58,342.00
             896.58,342.00 810.58,634.00 810.58,634.00
             810.58,634.00 771.42,767.00 771.42,767.00
             771.42,767.00 733.58,897.00 733.58,897.00
             726.86,920.01 717.49,944.84 717.02,969.00
             716.91,974.23 717.89,979.92 719.13,985.00
             727.04,1017.35 756.92,1025.00 786.00,1025.00
             785.84,1028.53 784.22,1039.92 781.44,1041.98
             779.40,1043.49 771.77,1043.00 769.00,1043.00
             769.00,1043.00 736.00,1043.00 736.00,1043.00
             736.00,1043.00 576.00,1043.00 576.00,1043.00
             576.00,1043.00 580.00,1025.00 580.00,1025.00
             591.26,1025.00 603.16,1025.18 614.00,1021.64
             625.46,1017.91 632.83,1012.91 642.00,1005.25
             677.10,975.88 685.26,932.66 697.42,891.00
             697.42,891.00 721.71,808.00 721.71,808.00
             721.71,808.00 743.58,733.00 743.58,733.00
             743.58,733.00 758.02,683.00 758.02,683.00
             758.02,683.00 770.29,641.00 770.29,641.00
             771.39,637.19 775.70,623.95 775.61,621.00
             775.51,618.10 771.63,609.98 770.22,607.00
             770.22,607.00 757.31,580.00 757.31,580.00
             757.31,580.00 709.31,478.00 709.31,478.00
             709.31,478.00 619.69,287.00 619.69,287.00
             619.69,287.00 598.31,242.00 598.31,242.00
             598.31,242.00 559.31,159.00 559.31,159.00
             559.31,159.00 536.00,110.00 536.00,110.00
             536.00,110.00 422.42,499.00 422.42,499.00
             412.42,533.24 392.67,585.02 431.00,609.56
             436.23,612.90 442.02,615.25 448.00,616.85
             458.54,619.66 466.26,620.00 477.00,620.00
             476.84,623.53 475.22,634.92 472.44,636.98
             470.40,638.49 462.77,638.00 460.00,638.00
             460.00,638.00 427.00,638.00 427.00,638.00
             427.00,638.00 267.00,638.00 267.00,638.00
             267.00,638.00 271.00,620.00 271.00,620.00 Z
           M 1025.00,488.00
           C 1025.00,488.00 1047.34,558.00 1047.34,558.00
             1047.34,558.00 1063.80,606.00 1063.80,606.00
             1068.44,617.57 1072.79,626.90 1086.00,630.10
             1094.28,632.11 1100.50,628.68 1107.00,623.76
             1116.92,616.26 1128.09,602.76 1136.25,593.00
             1136.25,593.00 1251.41,455.00 1251.41,455.00
             1251.41,455.00 1283.25,417.00 1283.25,417.00
             1286.24,413.42 1293.05,404.10 1297.01,402.60
             1299.03,401.84 1302.77,402.00 1304.96,402.00
             1304.96,402.00 1304.96,414.00 1304.96,414.00
             1304.96,414.00 1304.00,426.00 1304.00,426.00
             1304.00,426.00 1303.00,460.00 1303.00,460.00
             1303.00,460.00 1302.00,474.00 1302.00,474.00
             1302.00,474.00 1301.00,508.00 1301.00,508.00
             1301.00,508.00 1300.00,525.00 1300.00,525.00
             1300.00,525.00 1298.00,582.00 1298.00,582.00
             1298.00,582.00 1297.00,597.00 1297.00,597.00
             1296.88,607.27 1295.28,621.37 1305.04,627.87
             1308.72,630.32 1312.83,630.89 1317.00,632.00
             1317.00,632.00 1316.00,639.00 1316.00,639.00
             1316.00,639.00 1215.00,639.00 1215.00,639.00
             1215.00,639.00 1216.00,632.00 1216.00,632.00
             1221.24,631.06 1229.76,630.97 1234.00,628.27
             1240.64,624.03 1243.71,616.39 1245.19,609.00
             1247.51,597.45 1248.00,576.18 1248.00,564.00
             1248.00,564.00 1187.00,564.00 1187.00,564.00
             1184.47,564.01 1181.36,563.80 1179.09,565.02
             1176.44,566.45 1172.79,571.51 1170.80,574.00
             1170.80,574.00 1155.39,593.00 1155.39,593.00
             1150.48,599.04 1138.92,611.83 1139.41,620.00
             1139.71,625.09 1145.35,629.51 1150.00,630.61
             1151.88,631.05 1154.95,630.87 1156.40,632.02
             1158.27,633.50 1157.97,636.86 1158.00,639.00
             1158.00,639.00 1096.00,639.00 1096.00,639.00
             1096.00,639.00 1091.79,638.44 1087.56,638.19
             1083.29,637.94 1079.00,638.00 1079.00,638.00
             1079.00,638.00 989.00,638.00 989.00,638.00
             992.36,627.01 994.50,633.08 1002.96,627.15
             1008.77,623.08 1010.23,617.74 1009.96,611.00
             1009.62,602.50 1001.89,580.21 999.03,571.00
             999.03,571.00 981.00,514.00 981.00,514.00
             981.00,514.00 960.29,586.00 960.29,586.00
             958.28,592.98 952.25,611.59 953.83,618.00
             956.74,629.85 968.90,630.99 979.00,631.00
             979.00,631.00 978.00,638.00 978.00,638.00
             978.00,638.00 864.00,638.00 864.00,638.00
             864.55,636.20 865.21,633.17 866.72,631.99
             866.72,631.99 884.00,628.39 884.00,628.39
             890.85,625.60 895.67,619.54 898.69,613.00
             903.93,601.69 907.26,586.25 911.02,574.00
             911.02,574.00 936.42,486.00 936.42,486.00
             936.42,486.00 947.15,448.00 947.15,448.00
             948.53,442.89 951.39,433.01 950.89,428.00
             949.70,416.03 935.50,414.09 926.00,414.00
             926.00,414.00 927.00,407.00 927.00,407.00
             927.00,407.00 1037.00,407.00 1037.00,407.00
             1034.66,417.79 1031.76,411.45 1021.00,416.35
             1015.69,418.77 1010.29,424.16 1007.11,429.00
             1002.95,435.33 998.81,451.19 996.58,459.00
             996.58,459.00 987.58,491.00 987.58,491.00
             987.58,491.00 983.00,508.00 983.00,508.00
             983.00,508.00 1053.00,443.00 1053.00,443.00
             1061.36,434.59 1069.07,423.09 1054.00,415.92
             1051.60,414.78 1049.58,414.41 1047.00,414.00
             1047.00,414.00 1048.00,407.00 1048.00,407.00
             1048.00,407.00 1136.00,407.00 1136.00,407.00
             1134.54,415.67 1132.05,413.21 1121.00,416.15
             1115.03,417.75 1110.38,419.86 1105.00,422.86
             1083.99,434.58 1070.47,448.01 1053.00,464.08
             1047.07,469.54 1031.13,485.10 1025.00,488.00 Z
           M 1385.00,407.00
           C 1385.00,407.00 1457.00,407.00 1457.00,407.00
             1459.13,407.00 1462.58,406.75 1464.37,407.99
             1466.28,409.33 1469.12,415.68 1470.22,418.00
             1470.22,418.00 1481.76,443.00 1481.76,443.00
             1481.76,443.00 1519.74,524.00 1519.74,524.00
             1523.36,531.48 1532.22,553.21 1537.00,558.00
             1537.00,558.00 1547.58,519.00 1547.58,519.00
             1547.58,519.00 1566.02,455.00 1566.02,455.00
             1569.97,442.19 1575.67,422.75 1559.00,416.14
             1556.10,414.99 1550.21,414.26 1547.00,414.00
             1547.00,414.00 1548.00,407.00 1548.00,407.00
             1548.00,407.00 1623.00,407.00 1623.00,407.00
             1619.32,419.06 1616.00,411.85 1604.00,417.99
             1596.40,421.89 1590.78,429.36 1587.31,437.00
             1587.31,437.00 1570.58,491.00 1570.58,491.00
             1570.58,491.00 1542.34,587.00 1542.34,587.00
             1542.34,587.00 1530.00,629.00 1530.00,629.00
             1528.71,633.48 1527.76,642.22 1521.10,640.67
             1516.81,639.66 1514.94,632.64 1513.22,629.00
             1513.22,629.00 1496.75,594.00 1496.75,594.00
             1496.75,594.00 1475.69,549.00 1475.69,549.00
             1475.69,549.00 1447.31,489.00 1447.31,489.00
             1447.31,489.00 1432.26,457.00 1432.26,457.00
             1432.26,457.00 1427.00,446.00 1427.00,446.00
             1427.00,446.00 1386.00,587.00 1386.00,587.00
             1381.53,602.49 1374.00,624.04 1396.00,630.07
             1399.63,631.07 1402.32,630.99 1406.00,631.00
             1406.00,631.00 1405.00,638.00 1405.00,638.00
             1405.00,638.00 1328.00,638.00 1328.00,638.00
             1328.55,636.20 1329.21,633.17 1330.72,631.99
             1333.08,630.16 1337.91,632.01 1345.00,628.60
             1352.64,624.92 1359.97,616.51 1363.73,609.00
             1368.33,599.80 1373.46,578.88 1376.72,568.00
             1376.72,568.00 1401.72,482.00 1401.72,482.00
             1401.72,482.00 1411.66,448.00 1411.66,448.00
             1412.60,445.00 1416.28,433.42 1415.89,431.00
             1415.40,428.03 1412.11,425.05 1410.00,423.04
             1402.17,415.59 1394.45,414.03 1384.00,414.00
             1384.00,414.00 1385.00,407.00 1385.00,407.00 Z
           M 1628.00,470.00
           C 1628.00,470.00 1641.58,422.00 1641.58,422.00
             1641.58,422.00 1646.72,407.99 1646.72,407.99
             1646.72,407.99 1654.00,407.00 1654.00,407.00
             1654.00,407.00 1833.00,407.00 1833.00,407.00
             1833.00,407.00 1819.63,454.00 1819.63,454.00
             1815.69,469.13 1816.31,469.90 1808.00,470.00
             1808.00,451.97 1807.69,435.76 1788.00,427.46
             1777.58,423.07 1771.34,424.09 1764.00,422.00
             1764.00,422.00 1751.42,465.00 1751.42,465.00
             1751.42,465.00 1718.42,577.00 1718.42,577.00
             1718.42,577.00 1710.21,606.00 1710.21,606.00
             1709.48,609.45 1708.07,615.66 1708.89,619.00
             1710.57,625.87 1716.65,628.92 1723.00,630.19
             1727.85,631.17 1730.17,631.00 1735.00,631.00
             1735.00,631.00 1734.00,638.00 1734.00,638.00
             1734.00,638.00 1618.00,638.00 1618.00,638.00
             1618.00,638.00 1620.00,631.00 1620.00,631.00
             1627.82,631.00 1635.00,630.70 1642.00,626.64
             1654.73,619.24 1660.01,596.54 1663.86,583.00
             1663.86,583.00 1698.42,466.00 1698.42,466.00
             1698.42,466.00 1711.00,423.00 1711.00,423.00
             1692.15,423.00 1673.10,428.02 1659.00,441.09
             1653.69,446.01 1648.72,451.21 1644.37,457.00
             1635.01,469.47 1638.21,469.97 1628.00,470.00 Z
           M 1253.00,477.00
           C 1253.00,477.00 1224.73,509.00 1224.73,509.00
             1224.73,509.00 1191.00,550.00 1191.00,550.00
             1191.00,550.00 1249.00,550.00 1249.00,550.00
             1249.00,550.00 1250.00,524.00 1250.00,524.00
             1250.00,524.00 1251.00,507.00 1251.00,507.00
             1251.00,507.00 1252.00,493.00 1252.00,493.00
             1252.00,493.00 1253.00,477.00 1253.00,477.00 Z
           M 983.00,508.00
           C 983.00,508.00 982.00,508.00 982.00,508.00
             982.00,508.00 983.00,509.00 983.00,509.00
             983.00,509.00 983.00,508.00 983.00,508.00 Z
           M 1087.56,638.25
           C 1087.56,638.25 1087.69,634.56 1087.69,634.56
             1087.69,634.56 1087.81,630.44 1087.81,630.44
             1087.81,630.44 1087.56,638.25 1087.56,638.25 Z" />
</svg>
