<?xml version="1.0" encoding="UTF-8" standalone="no"?>
<!-- Created with Inkscape (http://www.inkscape.org/) -->

<svg
   version="1.1"
   id="svg9"
   width="515.40002"
   height="348.60001"
   viewBox="0 0 515.40002 348.60001"
   sodipodi:docname="Nykant-Logo-FinitoBandito.svg"
   inkscape:version="1.1.2 (b8e25be833, 2022-02-05)"
   xmlns:inkscape="http://www.inkscape.org/namespaces/inkscape"
   xmlns:sodipodi="http://sodipodi.sourceforge.net/DTD/sodipodi-0.dtd"
   xmlns="http://www.w3.org/2000/svg"
   xmlns:svg="http://www.w3.org/2000/svg">
  <defs
     id="defs13" />
  <sodipodi:namedview
     id="namedview11"
     pagecolor="#ffffff"
     bordercolor="#666666"
     borderopacity="1.0"
     inkscape:pageshadow="2"
     inkscape:pageopacity="0.0"
     inkscape:pagecheckerboard="0"
     showgrid="false"
     width="515.40002px"
     height="348.60001px"
     inkscape:zoom="1.492513"
     inkscape:cx="184.58801"
     inkscape:cy="202.3433"
     inkscape:window-width="2560"
     inkscape:window-height="1377"
     inkscape:window-x="-8"
     inkscape:window-y="-8"
     inkscape:window-maximized="1"
     inkscape:current-layer="g15" />
  <g
     inkscape:groupmode="layer"
     inkscape:label="Image"
     id="g15">
    <path
       style="fill:#303030;stroke-width:0.329779"
       d="m 103.6721,345.90786 c 0.0144,-0.41206 0.27266,-1.64638 0.57391,-2.74294 l 0.54773,-1.99372 4.51257,-0.39579 c 4.92549,-0.43197 7.24899,-0.99274 10.03229,-2.42118 4.29689,-2.2053 9.75741,-7.27729 12.7888,-11.87887 1.94252,-2.94868 4.13039,-7.41552 5.5207,-11.27128 0.53685,-1.48881 7.84231,-26.64188 16.23438,-55.89568 l 15.2583,-53.18876 -39.13975,-84.48987 C 108.47416,75.16034 90.721052,36.997528 90.549656,36.823519 c -0.171386,-0.17401 -0.380318,-0.246625 -0.464298,-0.161366 -0.08397,0.08526 -9.222734,31.700827 -20.308344,70.256817 -13.355535,46.45083 -20.37277,71.37416 -20.799165,73.87307 -1.576666,9.24004 -0.333403,15.25445 4.102159,19.84468 3.174667,3.28534 6.951502,4.78572 13.865295,5.50803 l 3.719376,0.38859 -0.184192,1.3644 c -0.101356,0.75042 -0.376514,1.96041 -0.611567,2.68886 l -0.427365,1.32446 -33.463724,0.0846 -33.4637154,0.0846 0.026183,-0.7492 c 0.014421,-0.41208 0.2726713,-1.6464 0.573919,-2.74295 l 0.5477256,-1.99373 4.5125567,-0.39577 c 4.9255011,-0.43199 7.2490071,-0.99276 10.0322891,-2.42121 4.296895,-2.20531 9.757409,-7.27728 12.788805,-11.87886 1.943597,-2.95031 4.130501,-7.41585 5.523069,-11.27776 1.332152,-3.69437 45.199,-156.679967 45.199,-157.631448 0,-1.014188 -6.534087,-7.515838 -9.984227,-9.934664 C 67.6413,10.185805 63.568239,8.994654 56.242217,8.5243768 54.047951,8.3835209 52.475518,8.136502 52.394678,7.9199549 52.184999,7.3582361 53.503354,2.9842663 53.973707,2.6811705 c 0.535125,-0.3448353 68.686853,-0.3526347 69.221343,-0.00789 0.22155,0.1428902 14.75997,31.3549305 32.30757,69.3600915 17.54761,38.005147 32.08434,69.100287 32.30386,69.100287 0.34574,0 27.68042,-94.411177 29.72787,-102.677074 1.59765,-6.449995 2.05079,-13.159577 1.15057,-17.036142 -1.45008,-6.244365 -5.79725,-10.290969 -12.90765,-12.0151909 -1.48461,-0.3600094 -3.72841,-0.7575176 -4.9862,-0.883351 -1.49629,-0.1496938 -2.34789,-0.3901594 -2.46332,-0.6955655 -0.0971,-0.2567281 0.17309,-1.5445528 0.6003,-2.8618329 l 0.77671,-2.3950539 32.32928,-0.084692 c 28.42216,-0.074463 32.35198,-0.024724 32.51682,0.4114986 0.23985,0.6345409 -0.46598,3.763252 -1.06943,4.7405918 -0.30281,0.4904098 -0.78212,0.7476486 -1.3931,0.7476486 -1.71807,0 -6.72,0.9978067 -9.36301,1.8677762 -3.51755,1.157837 -7.74258,3.405448 -10.19389,5.422924 -3.97302,3.269849 -8.25693,10.360625 -11.21048,18.555734 -0.74319,2.062091 -12.17971,41.089351 -25.41448,86.727249 -13.23478,45.6379 -24.88125,85.74429 -25.88105,89.12532 -9.12864,30.87047 -29.38189,102.14764 -29.91659,105.28534 -1.57516,9.24314 -0.33222,15.25482 4.10298,19.84465 3.17466,3.28537 6.9515,4.78573 13.86529,5.50805 l 3.71937,0.38858 -0.18419,1.3644 c -0.10135,0.75042 -0.37651,1.96041 -0.61156,2.68885 l -0.42737,1.32447 -33.46373,0.0846 -33.46371,0.0846 0.0262,-0.74922 z M 412.19443,212.60955 c -0.43463,-0.44129 -2.5927,-5.05399 -21.77089,-46.53345 -4.47317,-9.67476 -8.2829,-17.64119 -8.46608,-17.70319 -0.18462,-0.0625 -2.49043,7.4072 -5.17349,16.75975 -11.14143,38.83606 -10.73284,37.20401 -10.0026,39.95444 0.72017,2.71258 2.79321,4.22309 6.63117,4.83183 1.28474,0.20375 1.63651,0.94536 0.83458,1.75953 -0.50048,0.50813 -24.00544,0.57901 -24.31326,0.0733 -0.46392,-0.76213 0.50183,-1.62963 2.04222,-1.83442 2.55319,-0.33945 4.24792,-1.13055 6.09654,-2.84591 3.11843,-2.8936 3.33826,-3.51561 12.29393,-34.78409 4.51041,-15.74807 8.20077,-28.92582 8.20077,-29.28389 0,-0.37597 -0.85603,-1.43754 -2.02587,-2.51239 -2.08621,-1.91675 -4.1611,-2.84646 -6.35258,-2.84646 -1.46226,0 -2.09474,-0.29944 -2.09474,-0.99173 0,-1.30154 0.46736,-1.34524 13.42548,-1.25521 l 12.53073,0.0871 11.40332,24.73736 c 6.27184,13.60554 11.54883,24.88507 11.72663,25.0656 0.17782,0.18055 0.41503,0.23513 0.52718,0.1213 0.11212,-0.11383 2.62913,-8.70183 5.59333,-19.08443 6.03535,-21.13966 6.33488,-22.67038 4.95787,-25.33762 -1.00718,-1.95099 -2.10465,-2.70713 -4.5919,-3.16383 -1.51449,-0.27807 -2.08763,-0.53146 -2.16866,-0.95878 -0.28675,-1.5116 -0.0163,-1.54575 12.23789,-1.54575 6.64728,0 11.63808,0.12935 11.74461,0.30441 0.10186,0.16742 0.0489,0.66876 -0.11789,1.11411 -0.25754,0.68769 -0.59075,0.84326 -2.21155,1.03244 -4.00917,0.46799 -6.81366,2.68945 -8.80747,6.97642 -0.65637,1.41131 -4.55466,14.32321 -9.64394,31.9425 -10.77574,37.30615 -10.36274,35.94503 -10.97948,36.18532 -0.75846,0.29549 -1.01898,0.25037 -1.52585,-0.26426 z M 255.52051,212.1603 c -9.5274,-0.0526 -16.31395,-0.21783 -16.49485,-0.4015 -0.61391,-0.62329 0.65017,-1.90293 2.11464,-2.14068 1.02921,-0.16711 1.74555,-0.58907 2.77591,-1.63516 1.79619,-1.82362 2.0623,-3.15348 1.34182,-6.70513 -0.72393,-3.56873 -8.86703,-30.17268 -9.278,-30.31177 -0.30001,-0.10158 -7.60186,25.03867 -8.80389,30.31177 -1.29385,5.67584 0.27429,7.87722 6.1574,8.64378 1.21077,0.15777 1.55461,0.33606 1.55461,0.8061 0,0.33195 -0.20071,0.77266 -0.44604,0.97937 -0.65281,0.55008 -36.26686,0.36382 -36.44883,-0.19062 -0.26484,-0.80694 1.16509,-1.76527 2.63394,-1.76527 4.41272,0 7.2883,-2.27783 9.02409,-7.14822 1.4562,-4.0859 15.58887,-54.02808 16.26044,-57.46135 0.61327,-3.13516 0.50448,-4.01522 -0.67186,-5.43456 -1.02674,-1.23886 -2.1186,-1.69539 -4.76474,-1.99226 -1.65676,-0.18586 -2.13067,-0.36389 -2.21962,-0.83379 -0.29843,-1.57668 -0.46248,-1.56241 17.96253,-1.56241 11.27374,0 17.35784,0.11662 17.49092,0.33527 0.51861,0.85193 -0.21179,1.62463 -1.73653,1.83711 -0.846,0.11789 -2.07673,0.35224 -2.73497,0.52075 -1.76247,0.45121 -4.33607,2.97 -5.50376,5.38652 -0.94119,1.94776 -7.20913,23.61542 -7.20913,24.92122 0,0.33859 0.12882,0.56579 0.28626,0.50486 0.58149,-0.22498 23.96538,-22.29534 24.80157,-23.40839 1.11283,-1.48133 1.393,-3.89669 0.62648,-5.40157 -0.48991,-0.96192 -1.94807,-1.90549 -3.86787,-2.50294 -0.65769,-0.20467 -0.75827,-1.20698 -0.18001,-1.79408 0.29308,-0.29757 3.90562,-0.39875 14.23699,-0.39875 12.96874,0 13.84394,0.0368 13.83926,0.5815 -0.0102,1.12175 -0.58277,1.47638 -3.10425,1.92093 -3.87041,0.68238 -8.8833,3.32521 -14.27795,7.52741 -2.55472,1.98999 -18.61441,16.85686 -18.61441,17.23182 0,0.40471 9.44058,30.40843 10.9737,34.87626 1.45351,4.23581 3.15938,8.05447 4.2417,9.49511 1.19279,1.58774 3.82036,2.79956 6.07025,2.79956 2.90128,0 5.33047,-1.41819 9.05609,-5.28699 1.68761,-1.75251 15.54431,-18.36363 30.7926,-36.91364 26.69196,-32.47151 27.76834,-33.73099 28.90989,-33.82787 0.75705,-0.0643 1.23688,0.0559 1.32731,0.33229 0.0779,0.23809 -0.40832,13.89057 -1.08054,30.33885 -1.44143,35.26915 -1.54604,40.39409 -0.85811,42.03581 0.68039,1.62373 1.88291,2.64314 3.90797,3.31293 1.84688,0.61088 2.26745,1.24931 1.4018,2.12814 -0.47423,0.4815 -2.16049,0.53878 -15.86299,0.53878 -8.43283,0 -15.56533,-0.0907 -15.85007,-0.2017 -0.61838,-0.24092 -0.68226,-1.24577 -0.1086,-1.70801 0.22501,-0.18129 1.5048,-0.49063 2.844,-0.6874 2.63258,-0.38684 3.67949,-0.9741 4.85031,-2.72068 1.50937,-2.25175 2.21547,-6.7755 2.43747,-15.61637 l 0.0959,-3.82131 -11.51443,-0.0874 -11.51442,-0.0874 -1.46526,1.74873 c -4.81797,5.74995 -9.8385,12.27514 -10.53575,13.69328 -1.80188,3.66485 -0.77309,6.06956 2.96414,6.92832 1.63359,0.37539 1.97345,0.57574 2.06575,1.21772 0.0608,0.42263 -0.0865,0.89519 -0.3273,1.05013 -0.24075,0.15493 -5.15068,0.24806 -10.91094,0.20693 -5.76026,-0.0411 -17.75756,-0.11505 -26.66067,-0.16423 z m 67.88268,-29.63018 c 0.16699,-0.27427 1.489,-20.7495 1.489,-23.06111 0,-0.52009 -0.14224,-0.89577 -0.31607,-0.83485 -0.44104,0.15457 -19.97576,23.52499 -19.97576,23.89808 0,0.40377 18.55704,0.4017 18.80283,-0.002 z m 121.44402,29.22166 c -0.21545,-0.35392 0.36411,-1.66192 0.74373,-1.67858 2.10255,-0.0922 5.30379,-0.8099 6.61003,-1.48193 1.95305,-1.00481 3.18329,-2.60886 4.53871,-5.9178 0.97876,-2.38934 18.05014,-60.55431 18.05014,-61.49972 0,-0.74736 -0.26055,-0.79159 -3.11172,-0.52812 -8.35774,0.7723 -14.23727,4.39943 -19.61348,12.09978 -1.72035,2.46406 -2.38805,3.17506 -2.98162,3.17506 -0.42066,0 -0.8431,-0.12859 -0.93879,-0.28576 -0.0957,-0.15718 1.11647,-4.75521 2.69363,-10.21787 l 2.8676,-9.93209 30.17943,-0.0848 30.17944,-0.0848 v 0.68198 c 0,0.7804 -4.83273,18.45885 -5.28747,19.34185 -0.16468,0.31983 -0.64082,0.58151 -1.05808,0.58151 -0.72543,0 -0.76661,-0.13445 -0.94161,-3.07366 -0.4243,-7.12623 -3.44849,-10.60652 -10.45438,-12.03098 -3.45848,-0.70317 -4.1352,-0.66801 -4.51669,0.23474 -0.4581,1.08413 -16.91242,57.91888 -17.49655,60.43472 -1.2436,5.35606 0.13768,7.75589 4.69003,8.14844 2.81598,0.24283 3.31787,0.4023 3.31787,1.05418 0,1.3878 -0.0203,1.38928 -19.02882,1.38928 -11.55253,0 -18.31595,-0.11934 -18.4414,-0.32541 z"
       id="path117" />
  </g>
</svg>
